<?xml version="1.0" standalone="no"?>
<!DOCTYPE svg PUBLIC "-//W3C//DTD SVG 20010904//EN"
 "http://www.w3.org/TR/2001/REC-SVG-20010904/DTD/svg10.dtd">
<svg version="1.0" xmlns="http://www.w3.org/2000/svg"
 width="3710.000000pt" height="3710.000000pt" viewBox="0 0 3710.000000 3710.000000"
 preserveAspectRatio="xMidYMid meet">
<metadata>
Created by potrace 1.14, written by Peter Selinger 2001-2017
</metadata>
<g transform="translate(0.000000,3710.000000) scale(0.100000,-0.100000)"
fill="#000000" stroke="none">
<path d="M8467 32023 c-142 -29 -260 -94 -352 -194 -60 -66 -66 -75 -109 -164
-54 -112 -67 -196 -61 -398 4 -94 8 -226 10 -292 4 -131 13 -392 20 -580 3
-66 7 -199 10 -295 4 -96 8 -224 10 -285 2 -60 6 -189 10 -285 3 -96 8 -233
11 -305 2 -71 7 -193 9 -270 5 -159 15 -437 20 -570 5 -119 6 -306 2 -325 -1
-8 -5 -19 -9 -25 -3 -5 -9 -24 -13 -42 -8 -41 -72 -139 -116 -179 -104 -93
-177 -112 -453 -119 -328 -8 -978 -22 -1331 -30 -104 -2 -296 -7 -425 -10
-327 -7 -645 -14 -915 -20 -576 -12 -617 -14 -695 -36 -209 -57 -374 -208
-441 -404 -36 -104 -34 -91 -54 -370 -4 -44 -8 -98 -10 -120 -2 -22 -6 -80
-10 -130 -3 -49 -8 -108 -10 -130 -2 -22 -7 -83 -10 -135 -4 -52 -8 -111 -10
-130 -3 -31 -10 -126 -21 -270 -7 -97 -14 -197 -19 -245 -2 -27 -7 -88 -10
-135 -3 -47 -8 -107 -10 -135 -2 -27 -7 -88 -10 -135 -8 -108 -12 -154 -22
-265 -4 -49 -7 -144 -7 -210 1 -107 4 -129 31 -206 67 -192 214 -338 408 -406
l80 -28 280 1 c154 1 440 4 635 8 195 4 447 9 560 11 316 6 792 15 1030 20
311 6 867 16 1068 20 192 3 248 -5 334 -49 56 -29 158 -121 158 -143 0 -7 4
-13 9 -13 5 0 18 -24 29 -52 37 -96 37 -96 57 -388 3 -47 8 -109 10 -137 3
-29 7 -92 10 -140 3 -49 8 -108 10 -133 2 -25 7 -88 10 -140 3 -52 8 -122 11
-155 10 -137 14 -184 19 -260 3 -44 7 -105 10 -135 5 -64 17 -229 30 -415 8
-107 15 -199 20 -260 2 -27 7 -97 11 -155 3 -58 8 -121 10 -140 11 -114 19
-272 19 -385 0 -103 -5 -146 -23 -207 -51 -180 -154 -335 -287 -433 -22 -17
-42 -33 -45 -36 -3 -4 -120 -64 -260 -135 -140 -70 -304 -156 -365 -189 -60
-34 -132 -74 -160 -90 -286 -159 -839 -513 -1051 -674 -12 -9 -32 -23 -44 -31
-39 -26 -362 -271 -435 -329 -88 -70 -418 -343 -425 -351 -3 -3 -45 -42 -95
-85 -49 -44 -95 -84 -101 -90 -6 -5 -51 -46 -99 -90 -124 -112 -559 -547 -685
-684 -58 -63 -112 -122 -122 -132 -25 -26 -317 -367 -363 -423 -22 -27 -56
-68 -75 -92 -361 -435 -868 -1184 -1165 -1719 -125 -225 -204 -376 -315 -600
-124 -251 -210 -432 -210 -440 0 -2 -13 -32 -29 -67 -81 -175 -250 -595 -336
-833 -25 -71 -50 -139 -55 -150 -27 -61 -220 -676 -271 -860 -33 -119 -87
-348 -94 -395 -4 -24 -8 -47 -10 -50 -2 -3 -7 -33 -10 -65 -4 -33 -9 -68 -11
-79 -21 -114 -21 -577 0 -691 2 -11 7 -45 10 -75 21 -162 111 -520 156 -615 5
-11 22 -55 39 -97 119 -306 411 -766 767 -1209 133 -166 163 -202 224 -269 14
-15 70 -78 125 -139 295 -327 750 -740 1135 -1032 47 -35 87 -66 90 -69 22
-25 552 -390 565 -390 3 0 11 -5 18 -10 21 -18 79 -54 257 -161 272 -164 400
-233 590 -317 121 -53 403 -143 496 -158 21 -3 41 -7 44 -9 6 -4 154 -30 230
-40 119 -17 243 -23 435 -20 116 2 219 6 230 8 11 3 49 8 85 12 163 17 436 82
605 144 311 113 511 221 828 449 82 59 158 114 170 122 12 8 125 89 251 179
126 90 246 175 267 190 20 14 112 80 204 146 92 66 186 134 209 150 23 17 86
62 140 100 54 39 108 77 120 85 34 22 74 52 104 77 15 13 32 23 39 23 6 0 13
4 15 8 2 6 767 557 891 642 12 8 134 96 272 194 312 223 363 248 507 247 186
-2 337 -98 429 -276 23 -44 50 -92 60 -107 11 -14 19 -30 19 -36 0 -5 25 -52
55 -105 30 -52 55 -100 55 -106 0 -6 3 -11 8 -11 4 0 12 -10 18 -23 61 -129
373 -616 543 -847 452 -614 923 -1062 1412 -1343 102 -58 215 -113 264 -129
29 -9 115 -12 145 -5 101 23 168 67 219 143 79 120 73 266 -19 394 -155 219
-348 524 -445 705 -26 50 -51 95 -55 100 -10 13 -211 416 -238 475 -11 25 -32
72 -47 105 -48 107 -116 267 -147 345 -16 41 -36 89 -43 105 -67 151 -348 982
-380 1125 -2 8 -17 66 -35 129 -17 62 -33 120 -36 130 -2 9 -26 104 -53 211
-27 107 -54 220 -60 250 -6 30 -13 69 -17 85 -3 17 -7 104 -9 195 -3 130 1
188 16 271 49 274 178 540 365 749 110 124 229 262 364 425 41 50 77 92 80 95
12 12 259 320 403 505 86 110 161 205 165 211 45 54 428 574 548 745 21 30 51
72 66 94 16 22 50 72 75 110 26 39 50 72 53 75 4 3 96 140 205 305 109 165
206 311 215 325 28 41 217 345 308 495 153 251 462 787 462 801 0 2 10 21 23
42 25 40 86 153 187 347 34 66 67 126 72 133 6 6 7 12 3 12 -4 0 -2 6 4 14 19
22 218 427 321 651 15 33 41 90 58 126 17 36 69 156 117 265 47 109 90 208 95
219 15 34 78 189 164 410 69 174 86 210 102 209 34 -2 86 -13 231 -48 78 -20
152 -37 165 -40 37 -8 343 -94 453 -127 276 -84 837 -280 859 -300 6 -5 16 -9
23 -9 12 0 401 -162 528 -220 246 -113 767 -380 798 -410 5 -4 4 -41 -3 -81
-37 -240 -33 -503 11 -721 67 -337 234 -625 489 -843 228 -196 621 -357 995
-410 23 -3 50 -7 60 -9 11 -2 54 -7 95 -11 41 -3 93 -9 115 -12 22 -3 168 -6
324 -7 l284 -1 79 -130 c128 -211 267 -503 360 -760 49 -135 161 -487 172
-540 3 -11 15 -57 27 -102 l22 -82 -95 -93 c-241 -236 -354 -460 -364 -718 -9
-273 114 -538 371 -795 89 -90 245 -214 298 -238 23 -10 30 -21 29 -47 0 -30
-14 -245 -17 -262 -2 -13 -6 -61 -10 -108 -11 -142 -21 -235 -40 -380 -19
-148 -22 -168 -40 -280 -3 -14 -7 -42 -10 -64 -4 -21 -9 -48 -11 -60 -2 -11
-6 -39 -9 -61 -4 -22 -12 -65 -18 -95 l-12 -55 -155 -1 c-151 -2 -315 -9 -395
-19 -58 -7 -124 -16 -145 -20 -9 -2 -33 -6 -51 -9 -50 -8 -116 -22 -149 -31
-3 -1 -18 -5 -35 -9 -130 -35 -323 -121 -417 -188 -180 -129 -285 -283 -344
-508 -19 -74 -29 -318 -15 -390 5 -25 12 -61 15 -80 3 -19 10 -57 15 -84 9
-48 9 -49 -40 -109 -76 -94 -142 -232 -169 -352 -39 -174 -29 -420 26 -611 8
-28 16 -60 19 -70 19 -87 124 -313 201 -432 62 -96 52 -82 144 -190 l70 -84
-19 -23 c-142 -182 -486 -543 -683 -718 -252 -224 -561 -458 -808 -612 -122
-75 -164 -116 -201 -191 -46 -92 -44 -215 3 -304 59 -111 194 -192 308 -185
50 4 186 16 210 20 14 2 50 6 80 10 106 11 263 32 310 40 14 2 43 6 65 10 22
3 81 12 130 21 50 8 104 17 120 20 24 4 127 24 250 48 197 40 501 117 695 176
74 23 155 47 180 55 25 7 90 29 145 49 55 19 120 43 145 51 25 9 101 39 170
67 110 44 147 60 235 98 94 41 435 213 535 271 69 39 139 80 157 90 l32 18
153 -50 c144 -47 538 -164 583 -174 11 -2 36 -9 55 -14 79 -24 476 -113 605
-135 17 -3 41 -8 55 -11 33 -6 71 -13 150 -25 36 -6 76 -13 90 -15 14 -2 48
-7 75 -10 28 -4 76 -10 109 -15 32 -5 61 -9 65 -8 6 1 115 -9 176 -17 17 -2
68 -7 115 -10 368 -24 737 -21 1028 10 109 12 139 16 162 20 14 2 45 7 70 10
25 3 55 7 66 9 12 2 39 7 60 10 60 9 143 26 209 41 33 8 72 16 86 19 106 18
522 147 634 196 11 5 65 28 120 51 497 207 990 538 1417 952 55 53 103 97 106
97 3 0 50 -23 103 -50 404 -207 872 -282 1289 -205 118 22 285 70 370 107 211
93 353 175 520 304 93 71 120 94 242 209 179 170 423 478 553 700 59 100 68
120 165 350 38 90 143 303 188 380 165 284 307 473 506 670 72 72 140 137 152
145 11 8 40 31 64 50 216 172 480 288 800 355 40 8 181 60 246 90 196 90 342
240 385 395 67 242 -72 522 -351 711 -139 93 -360 181 -494 195 -28 3 -62 7
-75 10 -32 7 -233 6 -291 -2 -40 -5 -111 -17 -180 -30 -182 -36 -402 -130
-570 -244 -258 -176 -514 -475 -764 -895 -42 -71 -81 -137 -86 -145 -5 -8 -20
-35 -33 -60 -14 -25 -48 -88 -77 -140 -50 -93 -266 -528 -350 -705 -24 -49
-60 -127 -81 -171 -89 -189 -330 -463 -557 -634 -171 -129 -385 -240 -551
-286 -128 -35 -160 -42 -226 -50 -27 -3 -60 -7 -72 -10 -13 -2 -23 -2 -23 1 0
2 17 33 38 67 145 236 316 568 476 920 14 31 26 59 26 62 0 3 12 31 26 62 64
140 205 515 294 784 81 244 202 644 215 712 2 9 13 51 25 93 12 42 23 84 25
93 2 9 24 104 49 211 26 107 49 209 52 225 3 17 11 56 19 86 7 30 16 69 18 85
3 17 8 41 11 55 3 14 8 36 10 50 3 14 14 70 25 125 19 96 24 125 36 198 3 17
8 39 10 47 2 8 6 33 10 55 3 22 10 65 15 95 5 30 12 73 15 95 3 22 10 63 15
90 5 28 12 70 15 95 3 25 7 56 9 70 3 14 10 61 16 105 6 44 13 91 15 105 2 14
7 52 10 85 4 33 8 67 10 75 2 8 7 47 11 85 3 39 8 77 9 85 5 28 21 172 30 265
3 33 8 83 11 110 4 28 8 68 9 90 5 53 14 167 20 235 15 168 26 340 40 595 24
441 35 1140 24 1505 l-3 105 74 110 c229 341 383 654 507 1025 47 144 112 380
126 466 3 16 15 81 26 144 12 63 24 144 27 178 3 35 7 73 10 85 24 129 24 672
-1 857 -2 19 -7 57 -11 84 -3 27 -8 58 -10 70 -2 12 -6 39 -9 61 -29 238 -169
703 -296 982 -38 83 -126 262 -143 293 -8 14 -41 70 -72 125 -51 90 -220 352
-234 365 -3 3 -23 30 -45 60 -38 54 -214 277 -238 302 -7 7 -44 49 -82 92
-243 277 -602 596 -926 826 l-120 85 -54 155 c-153 445 -308 771 -482 1014
-36 49 -70 94 -76 101 -199 213 -340 292 -512 287 -264 -9 -499 -232 -718
-682 -42 -85 -96 -207 -120 -270 -67 -173 -108 -297 -187 -568 -11 -40 -24
-71 -28 -68 -34 20 -379 22 -511 2 -20 -3 -56 -8 -81 -11 -80 -10 -346 -75
-453 -110 -121 -40 -232 -83 -331 -128 -66 -30 -70 -30 -80 -13 -44 73 -236
368 -245 376 -3 3 -20 25 -36 50 -17 24 -64 88 -105 141 -408 525 -747 705
-1007 532 -146 -97 -277 -346 -328 -623 -3 -14 -7 -36 -10 -50 -2 -14 -7 -47
-11 -75 -3 -27 -7 -62 -10 -77 -14 -90 -21 -504 -10 -658 8 -115 19 -224 31
-319 13 -99 13 -106 -5 -120 -10 -9 -40 -35 -66 -57 -292 -249 -565 -600 -833
-1074 -38 -66 -241 -474 -241 -483 0 -3 -13 -34 -29 -69 -38 -81 -114 -266
-141 -343 -12 -33 -28 -73 -35 -90 -7 -16 -32 -87 -55 -157 -23 -71 -45 -130
-49 -132 -3 -2 -43 30 -87 72 -119 114 -324 295 -444 392 -30 25 -57 47 -60
50 -15 16 -324 250 -445 337 -125 89 -406 277 -492 329 -158 95 -399 237 -448
264 -33 18 -74 41 -90 50 -567 318 -1464 703 -2090 900 -55 17 -109 35 -120
40 -20 9 -379 118 -413 125 -9 2 -65 17 -124 34 -166 48 -525 136 -671 166
-10 2 -26 6 -35 9 -9 3 -37 8 -62 11 -24 4 -48 9 -52 11 -4 3 -20 7 -35 9 -85
12 -153 28 -153 35 0 5 54 150 121 322 66 172 127 341 134 375 26 122 2 302
-56 415 -81 159 -213 267 -419 341 -36 13 -492 185 -1015 381 -522 196 -961
359 -975 362 -112 24 -217 24 -334 -1 -85 -18 -222 -99 -295 -175 -81 -84
-104 -126 -207 -378 -31 -74 -59 -142 -64 -151 -4 -9 -12 -27 -18 -41 -6 -14
-101 -241 -211 -505 -110 -264 -205 -493 -210 -509 -8 -20 -16 -26 -27 -22
-36 14 -305 59 -423 72 -121 12 -153 15 -246 21 -201 12 -677 5 -830 -12 -22
-2 -69 -7 -105 -10 -113 -9 -174 -15 -210 -20 -19 -3 -58 -8 -86 -11 -28 -2
-60 -6 -71 -8 -11 -3 -44 -7 -74 -11 -30 -3 -81 -11 -114 -17 -33 -5 -76 -12
-95 -14 -19 -2 -44 -6 -56 -8 -12 -3 -39 -8 -60 -11 -46 -7 -132 -23 -191 -36
-22 -5 -58 -12 -79 -15 -31 -5 -268 -55 -324 -69 -8 -2 -57 -13 -109 -25 -52
-11 -127 -30 -167 -40 -145 -39 -253 -28 -351 37 -90 59 -145 138 -168 238
-11 51 -13 2018 -2 2060 38 139 111 232 237 302 85 48 -6 46 2590 48 2249 1
2450 3 2505 18 176 49 336 179 414 337 73 148 69 84 70 1365 0 1098 -1 1153
-19 1223 -63 241 -257 423 -510 478 -19 4 -1083 8 -2365 9 -1281 1 -2350 5
-2375 9 -117 20 -250 118 -305 227 -53 103 -62 189 -41 405 8 84 20 222 31
369 4 44 8 96 10 115 2 20 7 76 10 125 4 50 8 110 10 135 3 25 7 79 10 120 3
41 8 95 10 120 3 25 7 79 10 120 3 41 7 98 10 125 4 49 10 118 20 240 9 107
15 179 21 250 6 68 7 89 19 245 3 41 7 98 10 125 2 28 7 77 10 110 3 33 7 89
10 125 6 84 15 193 20 250 2 25 7 83 10 130 4 47 9 103 11 125 31 283 -15 463
-160 623 -82 91 -241 179 -356 198 -25 4 -666 8 -1424 8 -1049 1 -1393 -2
-1439 -11z m5050 -13290 c44 -14 71 -31 113 -73 107 -106 117 -231 31 -383
-16 -29 -43 -79 -61 -112 -18 -33 -45 -82 -60 -110 -15 -27 -46 -86 -70 -130
-24 -44 -55 -102 -70 -130 -15 -27 -43 -79 -62 -115 -20 -36 -46 -85 -60 -110
-14 -25 -42 -76 -63 -115 -21 -38 -50 -92 -65 -120 -15 -27 -44 -81 -65 -120
-72 -135 -108 -200 -130 -240 -12 -22 -41 -76 -65 -120 -24 -44 -55 -102 -70
-130 -15 -27 -49 -90 -75 -140 -26 -49 -51 -94 -55 -100 -4 -5 -33 -59 -65
-120 -32 -60 -65 -123 -75 -140 -18 -31 -33 -60 -165 -305 -109 -202 -169
-257 -292 -264 -77 -5 -169 27 -223 77 -47 43 -76 104 -96 202 -15 75 -52 257
-59 290 -3 11 -30 142 -60 290 -30 149 -57 277 -60 285 -2 8 -7 29 -9 45 -3
17 -31 152 -61 300 -31 149 -68 326 -81 395 -33 158 -29 141 -50 235 -10 44
-18 116 -19 160 0 140 48 198 295 353 233 146 543 281 810 353 77 21 81 22
165 39 28 6 61 13 75 16 14 3 41 7 60 10 19 2 60 9 90 14 30 5 93 12 140 16
47 3 86 7 87 8 2 2 84 4 182 5 151 2 189 -1 238 -16z m-4728 -1603 c86 -25
146 -59 208 -115 66 -59 129 -168 148 -255 9 -38 98 -427 120 -525 15 -60 28
-121 31 -135 3 -14 20 -90 39 -170 19 -80 46 -197 60 -260 32 -142 61 -267 80
-343 8 -32 17 -73 20 -90 3 -18 16 -77 30 -132 13 -55 33 -143 45 -195 12 -52
30 -133 41 -180 11 -47 24 -103 29 -125 5 -22 18 -78 29 -125 12 -47 27 -114
35 -150 7 -36 26 -117 41 -180 15 -63 29 -125 31 -137 2 -12 16 -70 29 -128
48 -201 59 -348 40 -529 -31 -305 -179 -622 -393 -840 -61 -63 -113 -111 -281
-261 -25 -22 -55 -49 -67 -60 -11 -11 -54 -49 -94 -85 -41 -36 -78 -70 -84
-75 -6 -6 -54 -48 -106 -95 -52 -47 -97 -87 -100 -90 -3 -3 -66 -59 -140 -125
-74 -66 -144 -129 -155 -140 -11 -11 -40 -38 -65 -59 -25 -22 -83 -74 -130
-116 -47 -43 -179 -162 -295 -265 -115 -104 -248 -222 -295 -264 -46 -42 -114
-103 -150 -136 -36 -33 -84 -76 -105 -95 -22 -20 -127 -113 -233 -208 -106
-95 -221 -195 -257 -222 -106 -80 -288 -159 -407 -175 -23 -3 -56 -8 -72 -11
-37 -8 -180 -7 -237 1 -88 12 -105 17 -191 45 -208 70 -261 109 -653 485 -92
89 -245 235 -390 374 -537 512 -541 518 -597 646 -46 105 -63 235 -46 340 18
107 16 102 84 255 38 86 208 423 259 515 15 28 57 102 93 165 36 63 70 124 76
135 6 11 18 31 27 45 9 14 62 102 119 195 207 341 588 907 766 1137 16 21 45
59 64 85 19 26 70 92 113 148 43 55 88 113 100 129 12 16 27 34 32 40 6 6 37
45 69 86 78 98 246 301 265 321 9 8 36 40 61 70 40 48 117 136 130 149 3 3 27
30 54 60 261 291 650 683 930 935 6 6 45 39 86 75 41 35 82 71 91 80 9 8 35
31 59 50 23 19 48 40 54 45 6 6 52 43 101 83 50 41 98 80 109 89 43 35 333
250 361 268 99 62 262 82 384 45z"/>
</g>
</svg>
