<?xml version="1.0" standalone="no"?>
<!DOCTYPE svg PUBLIC "-//W3C//DTD SVG 20010904//EN"
 "http://www.w3.org/TR/2001/REC-SVG-20010904/DTD/svg10.dtd">
<svg version="1.0" xmlns="http://www.w3.org/2000/svg"
 width="891.000000pt" height="891.000000pt" viewBox="0 0 891.000000 891.000000"
 preserveAspectRatio="xMidYMid meet">
<metadata>
Created by potrace 1.14, written by Peter Selinger 2001-2017
</metadata>
<g transform="translate(0.000000,891.000000) scale(0.100000,-0.100000)"
fill="#000000" stroke="none">
<path d="M2048 7688 c-59 -8 -89 -28 -117 -78 -22 -39 -22 -48 -17 -188 27
-682 27 -688 3 -724 -12 -17 -35 -35 -51 -39 -17 -5 -154 -11 -305 -14 -583
-13 -568 -12 -604 -30 -75 -35 -85 -70 -102 -340 -4 -49 -8 -110 -10 -135 -20
-217 -16 -253 36 -303 42 -40 80 -42 584 -32 409 9 410 9 437 -9 43 -28 49
-56 63 -286 3 -47 7 -98 10 -115 7 -52 19 -278 18 -331 -2 -90 -36 -135 -148
-191 -601 -303 -1094 -828 -1373 -1459 -61 -138 -150 -392 -172 -491 -70 -307
31 -562 350 -884 257 -260 536 -436 750 -475 65 -12 200 -6 273 11 116 28 198
75 442 250 127 91 247 178 269 193 21 15 48 34 60 42 12 8 61 43 108 78 107
77 141 93 181 81 29 -8 87 -55 87 -70 0 -4 16 -36 36 -71 20 -34 42 -72 48
-83 48 -84 178 -250 255 -323 100 -95 226 -172 271 -166 35 6 70 48 66 82 -2
15 -29 67 -60 116 -50 77 -146 255 -146 270 0 3 -12 31 -26 63 -72 157 -157
460 -157 558 1 107 26 160 144 300 132 157 125 148 194 240 33 44 63 82 66 85
15 12 241 354 303 458 59 100 189 339 192 352 0 3 20 46 43 95 24 50 61 135
83 190 22 55 41 101 42 102 4 5 206 -50 304 -83 117 -40 273 -106 367 -157
l60 -32 1 -80 c1 -105 9 -148 40 -212 66 -134 221 -209 450 -215 l88 -3 40
-75 c22 -41 57 -126 78 -189 l38 -114 -35 -38 c-76 -85 -94 -171 -52 -261 22
-48 92 -128 131 -150 11 -6 14 -20 11 -51 -2 -23 -7 -69 -10 -102 -4 -33 -8
-67 -10 -75 -2 -8 -7 -35 -10 -60 -4 -25 -7 -46 -8 -46 -1 -1 -40 -4 -87 -7
-137 -10 -195 -28 -256 -80 -55 -47 -84 -144 -64 -217 5 -18 -1 -40 -23 -78
-23 -41 -29 -64 -28 -107 1 -91 34 -184 87 -248 13 -16 24 -32 24 -36 0 -4
-42 -50 -93 -102 -86 -88 -145 -136 -261 -216 -54 -38 -72 -74 -56 -114 23
-55 63 -61 245 -33 215 32 490 124 625 209 25 16 42 20 60 14 131 -40 177 -52
250 -68 470 -105 862 -20 1164 253 47 42 51 44 75 31 42 -21 132 -45 191 -51
212 -22 437 137 556 393 108 232 230 352 399 392 110 26 176 88 170 160 -4 50
-15 70 -64 114 -67 60 -183 83 -282 57 -160 -43 -254 -149 -405 -451 -106
-211 -192 -298 -330 -334 -61 -16 -74 -14 -56 8 24 28 103 192 145 299 55 138
120 355 143 473 2 11 6 31 9 45 3 14 8 42 11 64 3 21 8 48 10 60 12 58 28 180
39 291 4 33 8 76 11 95 2 19 7 147 11 284 6 243 6 250 30 285 65 95 134 274
150 388 4 32 8 112 7 178 -1 97 -6 139 -28 220 -30 111 -94 245 -163 343 -69
96 -230 256 -300 297 -21 12 -37 32 -44 55 -30 93 -95 221 -137 271 -55 64
-121 86 -175 58 -62 -32 -129 -145 -177 -296 l-23 -71 -46 2 c-63 3 -143 -11
-230 -41 -53 -18 -76 -22 -79 -14 -6 19 -117 163 -153 199 -42 42 -100 73
-134 70 -41 -4 -83 -49 -107 -114 -19 -50 -22 -81 -22 -211 l-1 -151 -56 -59
c-69 -73 -124 -153 -182 -268 -51 -101 -97 -215 -97 -240 0 -10 -26 7 -75 50
-326 284 -772 499 -1250 602 -38 8 -72 17 -74 19 -2 2 11 42 29 90 24 63 31
96 27 125 -6 46 -38 94 -77 114 -50 26 -514 198 -535 198 -75 1 -89 -4 -125
-41 -20 -21 -44 -61 -54 -88 -11 -27 -27 -67 -36 -89 -10 -22 -34 -78 -54
-125 -20 -47 -39 -84 -43 -83 -119 24 -372 24 -508 -1 -16 -3 -47 -8 -68 -11
-21 -4 -84 -17 -140 -29 -115 -26 -144 -21 -171 32 -16 32 -20 476 -5 529 6
17 22 39 37 49 25 17 67 18 632 19 l605 0 37 23 c20 12 46 39 57 58 20 33 21
49 21 326 0 270 -1 295 -20 333 -11 22 -34 49 -52 60 -32 19 -58 20 -626 25
l-594 5 -30 34 -30 34 6 91 c4 50 9 120 12 156 2 36 6 83 9 105 3 22 8 81 10
130 3 50 8 104 10 120 11 80 17 207 11 239 -9 45 -63 102 -107 111 -42 10
-629 12 -691 3z m1232 -3215 c32 -41 46 -6 -170 -403 -31 -58 -76 -141 -100
-185 -53 -99 -76 -125 -110 -125 -50 0 -63 31 -106 250 -3 14 -9 44 -15 68 -5
23 -12 59 -15 80 -3 20 -8 40 -10 43 -5 9 -16 79 -17 104 0 35 14 53 61 82
112 65 205 98 309 109 32 4 59 7 60 8 1 1 22 0 47 -2 35 -3 51 -10 66 -29z
m-1146 -368 c33 -16 62 -55 70 -96 2 -13 12 -55 21 -94 9 -38 19 -80 21 -93 3
-13 18 -79 34 -147 16 -68 31 -134 34 -147 3 -13 16 -72 30 -133 30 -128 31
-160 11 -238 -21 -79 -50 -122 -145 -208 -45 -41 -90 -81 -99 -90 -9 -8 -97
-88 -196 -176 -99 -89 -198 -177 -220 -197 -62 -56 -101 -71 -180 -70 -75 0
-123 20 -175 71 -14 14 -78 75 -143 137 -136 128 -157 157 -159 219 0 37 11
68 66 173 210 402 550 811 883 1060 59 44 98 52 147 29z"/>
</g>
</svg>
