<svg xmlns="http://www.w3.org/2000/svg" version="1.1" xmlns:xlink="http://www.w3.org/1999/xlink" xmlns:svgjs="http://svgjs.com/svgjs" width="890" height="890"><svg xmlns="http://www.w3.org/2000/svg" viewBox="0 0 890 890"><defs><style>.cls-1{fill:#6b8d6a;stroke:#6b8d6a;}.cls-1,.cls-2,.cls-3,.cls-4{stroke-linecap:round;stroke-linejoin:round;stroke-width:5px;}.cls-2{fill:#a0abb6;stroke:#a0abb6;}.cls-3,.cls-4,.cls-5{stroke:#000;}.cls-4{fill:none;}.cls-5{stroke-miterlimit:10;}</style></defs><g id="SvgjsG1000" data-name="Calque 6"><path class="cls-1" d="M543,705.86s-50-62.25,22.42-59.78S578.32,734.88,543,705.86Z"></path><path class="cls-2" d="M579.7,740.91s-33.16-3.4-47.42-19A151,151,0,0,1,494,755.68a5.72,5.72,0,0,0,3.53,10.57c34.8-3.22,61.63-12.41,82.22-25.33Z"></path><path class="cls-2" d="M644.5,614.31c-25.53,3.36-52.78,3.51-73-5.21a236.92,236.92,0,0,1-5.68,42h0c-1.43,6.24-3.1,12.16-5,17.78,7,.45,16.58,3,29.88,9.07,24.36,11.09,37.67,1.89,44.94-11.25,8.52-15.39,8.76-36.19,8.76-36.19S644.58,624.06,644.5,614.31Z"></path><path class="cls-2" d="M590.67,449h0c-57.1-58.29-144.5-70.91-144.5-70.91L452.79,361a13.06,13.06,0,0,0-7.6-17l-47.83-17.94a13.08,13.08,0,0,0-16.65,7.2l-14.94,35.78c-25.53-7-60.68-.15-80.21,4.83A11.69,11.69,0,0,1,271,362.62V317.39A13.07,13.07,0,0,1,284,304.32H397.7a13.07,13.07,0,0,0,13.07-13.07V240a13.07,13.07,0,0,0-13.07-13.07H288.75a13.07,13.07,0,0,1-13-14.13l6.1-74.94a13.07,13.07,0,0,0-13-14.13H205.9a13.07,13.07,0,0,0-13.06,13.52l2.67,77.06a13.08,13.08,0,0,1-12.77,13.52l-81.13,1.83a13.08,13.08,0,0,0-12.74,12.08l-4,52.46a13.08,13.08,0,0,0,13.28,14.06l85.41-1.61a13.07,13.07,0,0,1,13.28,12.12l4.59,63.11a22.08,22.08,0,0,1-12.52,21.57c-34.25,16.28-123.38,69.5-157,194.06a69.21,69.21,0,0,0,7.29,53.57c12.43,20.75,35.78,49.14,78.07,72.65a68.07,68.07,0,0,0,72.63-4.06L262,668.15a14,14,0,0,1,20.68,5c9.79,19.16,29.49,51.44,56.05,63.72a5.49,5.49,0,0,0,6.77-8.21c-10.67-14.58-26.63-42.45-37.44-88.78a37.94,37.94,0,0,1,8.45-33.64c22.84-26,71.31-86.58,98.45-160.66a264.64,264.64,0,0,1,78.53,29.55l54.89,48.75c8.47,12.19,13.56,26.44,17.56,42.43.51-.78,2.81-1.85,3.6-2.68,10.12-10.57,26.92-20.17,67.42-21.75C637,541.92,576.77,522.36,590.67,449ZM226.08,593.76l-57.36,51.52a26.79,26.79,0,0,1-36.19-.77L106,619.11a18.13,18.13,0,0,1-4.13-20.3c9.75-22.64,45.78-82.92,97.13-120.08a14.55,14.55,0,0,1,22.7,8.53l16.15,70.23A37.18,37.18,0,0,1,226.08,593.76Zm104.3-142.17L297.69,512a9.44,9.44,0,0,1-17.54-2.58l-9.84-47.75a9.43,9.43,0,0,1,3.65-9.51,76.45,76.45,0,0,1,48.53-14.46A9.44,9.44,0,0,1,330.38,451.59Z"></path><path class="cls-1" d="M728.16,718s38.73,27.82,71.32-22.09a40.64,40.64,0,0,0,3.68-7.23c3.71-9.37,16.37-36.18,41.34-41.54,30.37-6.53,12.15-31.73-10.35-29.25s-32.85,19.8-50.4,57.37c0,0-14,24.65-40.63,23.69"></path><path class="cls-1" d="M548.39,523.92c-69.74,4.42-54.89-48.75-54.89-48.75l18.07,4.95c61.15-20.72,58.34,17,56.31,28.14C567.88,508.26,567.66,522.72,548.39,523.92Z"></path><path class="cls-1" d="M754.67,534.79a129.82,129.82,0,0,0,29.88-27h0a97,97,0,0,0,18.5-47.19c7-64.14-52.08-99.29-52.08-99.29s-10.8-37.8-25.2-36.6-22.8,38.4-22.8,38.4c-18.6-3.6-37.8,7.2-37.8,7.2s-21.3-38.3-32.4-27.2-5.4,44-5.4,44c-24.7,18.23-36.46,61.05-36.7,61.91h0c-13.9,73.32,46.3,92.88,46.3,92.88-40.5,1.58-55.38,13.44-67.42,21.75-21.79,15.05-15.6,29-7.89,37.4a40,40,0,0,0,18.21,11c19,5.6,42.49,5.1,64.63,2.19,37.79-5,71.82-17,73.89-17.75M644.5,614.31s-.35,37-8.87,52.41c-7.27,13.14-20.58,22.34-44.94,11.25-3.11-1.42-6-2.64-8.73-3.69-8.92-3.45-15.82-5-21.15-5.38,0,0-45.71-3.38-38.56,30.26a39.88,39.88,0,0,0,24.36,28.49l33.11,13.27c71.36,24.91,118,9.45,148.44-22.91a141.34,141.34,0,0,0,15-19c47.4-71.88,41.51-189.81,41.44-191.15M637,541.92c5.36,2.29,28.33,11.32,55.79,11"></path><ellipse class="cls-3" cx="698.17" cy="420.6" rx="8.4" ry="6"></ellipse><ellipse class="cls-3" cx="650.92" cy="427.13" rx="8.4" ry="6" transform="translate(-113.34 278.68) rotate(-22.28)"></ellipse><path class="cls-4" d="M703.42,477.72s-23.85-4.7-27.9-18.78c.23,16.78-19.12,30.48-19.12,30.48"></path><path class="cls-5" d="M691.62,444.47c1.51,4.8-4.48,11-13.37,13.75q-1.38.43-2.73.72c-7.83,1.71-14.75-.05-16.1-4.35-1.51-4.8,4.48-11,13.37-13.75S690.11,439.67,691.62,444.47Z"></path></g></svg><style>@media (prefers-color-scheme: light) { :root { filter: none; } }
@media (prefers-color-scheme: dark) { :root { filter: contrast(0.8333333333333334) brightness(1.7); } }
</style></svg>