<svg id="Calque_1" data-name="Calque 1" xmlns="http://www.w3.org/2000/svg" viewBox="0 0 500 500"><defs><style>.cls-1{fill:#fff;}</style></defs><path class="cls-1" d="M267.8,375.17,282.58,392l-30.36,29.69-15.15-16.6c-9.92,7-20.56,12.59-32.5,14.8-34.93,6.44-65.73-3-91.09-27.21-31.9-30.42-42.16-68.17-28.88-110.13s43.48-66.64,87.12-74.21c4.55-.79,9.22-.85,14.05-1.27V164.86H122.28V122.14h63.48V79.65h42.76V122H335v42.63h-106v42.7h89.67c2.2-8.09,4.55-16.69,7.07-25.93l41.5,10.8c-2.5,9.1-4.86,17.72-7.3,26.61,1.14.73,2.19,1.47,3.3,2.11,39.83,22.84,59.67,56.81,56.87,103.07-2.08,34.3-15.14,64.16-37.79,89.89-1.32,1.5-2.73,2.93-4.13,4.35a2.75,2.75,0,0,1-.78.54l-29.95-29.78c12.68-13.32,22.63-29.1,26.63-47.72,2.35-10.94,4-22.5,3.14-33.56-1.65-20.89-15.34-34.25-33.11-45.18C327.75,306.09,304.6,344.89,267.8,375.17Zm-54.14-6.1c-9.95-18.52-17.5-37.59-21.11-57.8-3.59-20.06-5.52-40.42-8.28-61.36-3.21.41-7.67.63-12,1.58-31.21,6.87-51.77,34.44-50.22,67.11,1.45,30.85,25,56.17,56.11,60.16C191.05,380.41,203,378.24,213.66,369.07Zm31.68-31.42c27.88-23.61,44-54.5,57.82-87.36H228.85C228.66,280.62,233,309.76,245.34,337.65Z"/></svg>